# xmcd
#
# Track frame offsets:
#	150
#	14297
#	31300
#	54573
#	72771
#	95975
#	113068
#	136659
#	157668
#	174386
#	196795
#	210082
#	223936
#	246421
#	265396
#	287009
#
# Disc length: 4161
#
# Revision: 1
# Processed by: cddbd v1.5.1PL0 Copyright (c) Steve Scherf et al.
# Submitted via: VisiTrax 2.9.9.202 - For more info visit www.synapsa.com
# Normalized: r0:DSETVAR1
#
DISCID=de103f10
DTITLE=Various Artist - Electric Blues
DYEAR=2003
DGENRE=Blues
TTITLE0=The Groundhogs - Smokestack Lightnin'
TTITLE1=Strange Brew - Crossroads
TTITLE2=Hardin and York - Stocktaking
TTITLE3=Debbie Bonham - What We've Got (Ain't For Sale)
TTITLE4=Snowy White - Blues Like A Fever
TTITLE5=Larry Burton Band - Hey Hey Hey
TTITLE6=Moses Wiggins - Colours Of Love
TTITLE7=The Big Dawgs - Home Of The Blues
TTITLE8=Polly Browne Blues Band - Before You Accuse Me
TTITLE9=Dave Baker and Motivator - Key To The Highway
TTITLE10=Burton Brothers Blues Band - Further On Up The Road
TTITLE11=Lyadrive - Rock 'N' Roll Hootchie Koo
TTITLE12=Robert Ross - I'm A King Bee
TTITLE13=Gene Washington and The Purple Aces - The Blues Walks With Me
TTITLE14=Spencer Davis Group - Trouble In Mind
TTITLE15=Moody Marsden Band - Tore Down
EXTD=
EXTT0=Modern Electric Blues/ From CD " Electric Blues "
EXTT1=Modern Electric Blues/ From CD " Electric Blues "
EXTT2=Modern Electric Blues/ From CD " Electric Blues "
EXTT3=Modern Electric Blues/ From CD " Electric Blues "
EXTT4=Modern Electric Blues/ From CD " Electric Blues "
EXTT5=Modern Electric Blues/ From CD " Electric Blues "
EXTT6=Modern Electric Blues/ From CD " Electric Blues "
EXTT7=Modern Electric Blues/ From CD " Electric Blues "
EXTT8=Modern Electric Blues/ From CD " Electric Blues "
EXTT9=Modern Electric Blues/ From CD " Electric Blues "
EXTT10=Modern Electric Blues/ From CD " Electric Blues "
EXTT11=Modern Electric Blues/ From CD " Electric Blues "
EXTT12=Modern Electric Blues/ From CD " Electric Blues "
EXTT13=Modern Electric Blues/ From CD " Electric Blues "
EXTT14=Modern Electric Blues/ From CD " Electric Blues "
EXTT15=Modern Electric Blues/ From CD " Electric Blues "
PLAYORDER=
